# xmcd CD database file
#
# Track frame offsets:
#	150
#	24020
#	53027
#	75455
#	96615
#	110520
#	142380
#	172227
#	197087
#
# Disc length: 2913 seconds
#
# Revision: 0
# Processed by: cddbd v1.5.1PL2 Copyright (c) Steve Scherf et al.
# Submitted via: CDex 1.51
#
DISCID=7c0b5f09
DTITLE=新良幸人パーシャクラブ - 新良幸人パーシャクラブ／Ver.１．０２
DYEAR=1900
DGENRE=Rock
TTITLE0=固み節
TTITLE1=クーダーカー〜仲順流り
TTITLE2=繁昌節〜崎枝節
TTITLE3=安里屋ゆんた
TTITLE4=白保節
TTITLE5=月の美しゃ
TTITLE6=風ゆイリヤ
TTITLE7=猫小
TTITLE8=崎山
EXTD=
EXTT0=
EXTT1=
EXTT2=
EXTT3=
EXTT4=
EXTT5=
EXTT6=
EXTT7=
EXTT8=
PLAYORDER=
